<svg width="79" height="79" viewBox="0 0 79 79" fill="none" xmlns="http://www.w3.org/2000/svg">
<path d="M69.125 79H9.875C7.14909 79 4.82178 78.0356 2.89307 76.1069C0.964355 74.1782 0 71.8509 0 69.125V9.875C0 7.14909 0.964355 4.82178 2.89307 2.89307C4.82178 0.964355 7.14909 0 9.875 0H69.125C71.8509 0 74.1782 0.964355 76.1069 2.89307C78.0356 4.82178 79 7.14909 79 9.875V69.125C79 71.8509 78.0356 74.1782 76.1069 76.1069C74.1782 78.0356 71.8509 79 69.125 79V79ZM54.3125 59.25H49.375V54.3125H54.3125V49.375H49.375V44.4375H54.3125V39.5H49.375V34.5625H54.3125V29.625H49.375V24.6875H54.3125V19.75H49.375V14.8125H54.3125V9.875H49.375V14.8125H44.4375V9.875H39.5V14.8125H34.5625V9.875H12.3438C11.6751 9.875 11.0965 10.1193 10.6079 10.6079C10.1193 11.0965 9.875 11.6751 9.875 12.3438V66.6563C9.875 67.3249 10.1193 67.9035 10.6079 68.3921C11.0965 68.8807 11.6751 69.125 12.3438 69.125H29.625V64.1875H34.5625V69.125H39.5V64.1875H44.4375V69.125H49.375V64.1875H54.3125V59.25ZM44.4375 64.1875V59.25H49.375V64.1875H44.4375ZM44.4375 49.375H49.375V54.3125H44.4375V49.375ZM44.4375 39.5H49.375V44.4375H44.4375V39.5ZM44.4375 29.625H49.375V34.5625H44.4375V29.625ZM44.4375 19.75H49.375V24.6875H44.4375V19.75ZM39.5 19.75V14.8125H44.4375V19.75H39.5ZM29.625 19.75V14.8125H34.5625V19.75H29.625ZM39.5 59.25V64.1875H34.5625V59.25H39.5ZM39.5 54.3125H44.4375V59.25H39.5V54.3125ZM39.5 44.4375H44.4375V49.375H39.5V44.4375ZM39.5 34.5625H44.4375V39.5H39.5V34.5625ZM39.5 24.6875H44.4375V29.625H39.5V24.6875ZM34.5625 24.6875V19.75H39.5V24.6875H34.5625ZM39.5 34.5625H34.5625V29.625H39.5V34.5625ZM39.5 44.4375H34.5625V39.5H39.5V44.4375ZM39.5 54.3125H34.5625V49.375H39.5V54.3125ZM29.625 59.25V54.3125H34.5625V59.25H29.625ZM29.625 49.375V44.4375H34.5625V49.375H29.625ZM29.625 39.5V34.5625H34.5625V39.5H29.625ZM29.625 29.625V24.6875H34.5625V29.625H29.625Z" fill="url(#paint0_linear)"/>
<defs>
<linearGradient id="paint0_linear" x1="5.80082e-07" y1="39.8376" x2="79" y2="39.8376" gradientUnits="userSpaceOnUse">
<stop stop-color="#C64646"/>
<stop offset="1" stop-color="#0158DA"/>
</linearGradient>
</defs>
</svg>
